<svg width="0" height="0" class="hidden">
  <symbol id="02 Website building" xmlns="http://www.w3.org/2000/svg" viewBox="0 0 56.01 56.01">
    <path id="Path_44" d="M44,31.3a2.6,2.6,0,1,0,2.6,2.6A2.6,2.6,0,0,0,44,31.3Zm0,3.535a.939.939,0,1,1,.939-.939A.94.94,0,0,1,44,34.84Zm0,0" transform="translate(-36.873 -27.88)" fill="#d6cfff"></path>
    <path id="Path_45" d="M107.62,31.3a2.6,2.6,0,1,0,2.6,2.6A2.6,2.6,0,0,0,107.62,31.3Zm0,3.535a.939.939,0,1,1,.939-.939A.94.94,0,0,1,107.62,34.84Zm0,0" transform="translate(-93.535 -27.88)" fill="#d6cfff"></path>
    <path id="Path_46" d="M171.244,31.3a2.6,2.6,0,1,0,2.6,2.6A2.6,2.6,0,0,0,171.244,31.3Zm0,3.535a.939.939,0,1,1,.939-.939A.94.94,0,0,1,171.244,34.84Zm0,0" transform="translate(-150.199 -27.88)" fill="#d6cfff"></path>
    <path id="Path_47" d="M52.972,0H3.038A3.041,3.041,0,0,0,0,3.038V39.6a3.041,3.041,0,0,0,3.038,3.038H8.383a.828.828,0,0,0,.068,1.095l3.981,3.981A16.986,16.986,0,0,0,11.65,49.6H6.021a.828.828,0,0,0-.828.829v4.751a.828.828,0,0,0,.828.829h16.35a.829.829,0,0,0,.829-.829,4.585,4.585,0,1,1,9.169,0,.829.829,0,0,0,.829.829h16.35a.829.829,0,0,0,.829-.829V50.431a.829.829,0,0,0-.829-.829H43.918a16.986,16.986,0,0,0-.782-1.884l3.981-3.981a.829.829,0,0,0,.067-1.095h5.787A3.041,3.041,0,0,0,56.009,39.6v-20.5a.828.828,0,1,0-1.657,0V39.6a1.382,1.382,0,0,1-1.381,1.381H45.537L40.654,36.1V30.435a.829.829,0,0,0-.829-.829H38.334V24.5L39.5,23.421a.829.829,0,0,0,.229-.855L37.744,16.16a.829.829,0,0,0-.791-.583h-2.21a.829.829,0,0,0-.791.583l-1.988,6.407a.829.829,0,0,0,.229.855l1.17,1.079v5.106H31.871a.829.829,0,0,0-.829.829v2.154H24.525V31.331l3.182-3.182a.828.828,0,0,0,.243-.586V20.769a.828.828,0,0,0-.247-.589l-4.418-4.364a.829.829,0,0,0-1.411.589v7.386l-2.154,1.356-2.154-1.356v-.472a.829.829,0,1,0-1.657,0v.929a.828.828,0,0,0,.387.7l2.983,1.878a.828.828,0,0,0,.883,0l2.983-1.878a.828.828,0,0,0,.387-.7V18.388l2.762,2.727v6.1L23.11,30.4a.829.829,0,0,0-.243.586v1.618a.829.829,0,0,0-.663.812v5.629a16.991,16.991,0,0,0-1.884.781l-3.75-3.75V30.988a.829.829,0,0,0-.243-.586l-3.182-3.182v-6.1l2.762-2.727v1.051a.829.829,0,1,0,1.657,0V16.405a.829.829,0,0,0-1.411-.59l-4.419,4.364a.828.828,0,0,0-.246.589v6.794a.828.828,0,0,0,.243.586l3.182,3.182V36.1L10.03,40.985H3.038A1.382,1.382,0,0,1,1.657,39.6V12.041h52.7v3.206a.829.829,0,0,0,1.657,0V3.038A3.041,3.041,0,0,0,52.972,0ZM34.753,23.53,33.7,22.559l1.653-5.325h.988L38,22.559l-1.052.971a.829.829,0,0,0-.267.609v5.468H35.02V24.138A.83.83,0,0,0,34.753,23.53ZM39,31.264v4.815l-3.75,3.75a17.075,17.075,0,0,0-1.884-.782V33.418a.829.829,0,0,0-.663-.812V31.264H39ZM20.55,41.571a15.346,15.346,0,0,1,2.725-1.13.829.829,0,0,0,.586-.793v-5.4h7.843v5.4a.829.829,0,0,0,.587.793,15.346,15.346,0,0,1,2.725,1.13.829.829,0,0,0,.976-.145l3.821-3.821L44.608,42.4h0l.751.751-3.821,3.821a.829.829,0,0,0-.145.976,15.319,15.319,0,0,1,1.13,2.725.829.829,0,0,0,.792.586h5.4v3.093H40.295a12.545,12.545,0,0,0-17.608-10.63.829.829,0,0,0,.674,1.514,10.888,10.888,0,0,1,15.273,9.116H33.971a6.242,6.242,0,0,0-12.373,0H16.933a10.765,10.765,0,0,1,3.409-7.111.829.829,0,0,0-1.133-1.209,12.592,12.592,0,0,0-3.935,8.32H6.849V51.259h5.4a.829.829,0,0,0,.793-.586,15.319,15.319,0,0,1,1.13-2.725.829.829,0,0,0-.145-.976l-3.821-3.821.751-.751h0l4.794-4.795,3.821,3.821A.829.829,0,0,0,20.55,41.571ZM1.657,10.384V3.038A1.382,1.382,0,0,1,3.038,1.657H52.972a1.382,1.382,0,0,1,1.381,1.381v7.346Zm0,0" fill="#d6cfff"></path>
  </symbol>
  <symbol id="03 Monthly updates" xmlns="http://www.w3.org/2000/svg" viewBox="0 0 58.612 58.612">
    <path id="Path_93" d="M43.959,30.283V26.907a9.787,9.787,0,0,0,1.586-.659l2.393,2.391a.976.976,0,0,0,1.381,0l2.765-2.765a.976.976,0,0,0,0-1.381L49.693,22.1a9.787,9.787,0,0,0,.659-1.586h3.376a.977.977,0,0,0,.977-.977V15.63a.977.977,0,0,0-.977-.977H50.352a9.787,9.787,0,0,0-.659-1.586l2.391-2.393a.976.976,0,0,0,0-1.381L49.319,6.529a.945.945,0,0,0-.476-.245V2.931A2.931,2.931,0,0,0,45.913,0H2.931A2.931,2.931,0,0,0,0,2.931V45.913a2.931,2.931,0,0,0,2.931,2.931h14.1a.945.945,0,0,0,.245.476l2.765,2.765a.976.976,0,0,0,1.381,0l2.393-2.391a9.787,9.787,0,0,0,1.586.659v3.376a.977.977,0,0,0,.977.977h3.907a.977.977,0,0,0,.977-.977V49.82a.977.977,0,0,0-1.954,0v2.931H27.352V49.605a.976.976,0,0,0-.757-.951,7.935,7.935,0,0,1-2.424-1.008.977.977,0,0,0-1.213.136l-2.23,2.234-1.388-1.388.071-.07L21.576,46.4a.977.977,0,0,0,.136-1.213A7.931,7.931,0,0,1,20.7,42.765a.976.976,0,0,0-.951-.76H16.607V40.052h3.146a.976.976,0,0,0,.951-.757,7.936,7.936,0,0,1,1.008-2.424.977.977,0,0,0-.136-1.213l-2.234-2.23,1.388-1.388,2.227,2.234a.977.977,0,0,0,1.213.136A7.931,7.931,0,0,1,26.593,33.4a.976.976,0,0,0,.76-.951V29.306h1.954v3.146a.976.976,0,0,0,.757.951,7.936,7.936,0,0,1,2.424,1.008.977.977,0,1,0,1.044-1.653,9.737,9.737,0,0,0-2.27-1.053V28.329a.977.977,0,0,0-.977-.977H26.376a.977.977,0,0,0-.977.977v3.376a9.787,9.787,0,0,0-1.586.659L21.42,29.973a.976.976,0,0,0-1.381,0l-2.765,2.765a.976.976,0,0,0,0,1.381l2.391,2.393a9.787,9.787,0,0,0-.659,1.586H15.63a.977.977,0,0,0-.977.977v3.907a.977.977,0,0,0,.977.977h3.376a9.787,9.787,0,0,0,.659,1.586L18.321,46.89H2.931a.977.977,0,0,1-.977-.977V9.769H29.728a.961.961,0,0,0,.245.905l2.391,2.393a9.787,9.787,0,0,0-.659,1.586H28.329a.977.977,0,0,0-.977.977v3.907a.977.977,0,0,0,.977.977h3.376a9.787,9.787,0,0,0,.659,1.586l-2.391,2.393a.976.976,0,0,0,0,1.381l2.765,2.765a.976.976,0,0,0,1.381,0l2.393-2.391a9.787,9.787,0,0,0,1.586.659v3.376a.977.977,0,0,0,.977.977h3.907A.977.977,0,0,0,43.959,30.283ZM1.954,2.931a.977.977,0,0,1,.977-.977H45.913a.977.977,0,0,1,.977.977V7.576L45.546,8.92a9.787,9.787,0,0,0-1.586-.659V4.884a.977.977,0,0,0-.977-.977H39.075a.977.977,0,0,0-.977.977V8.26a9.787,9.787,0,0,0-1.586.659L34.119,6.529a.976.976,0,0,0-1.381,0L31.455,7.815H1.954ZM42.762,25.209a.976.976,0,0,0-.757.951v3.146H40.052V26.16a.976.976,0,0,0-.757-.951A7.936,7.936,0,0,1,36.871,24.2a.977.977,0,0,0-1.213.136l-2.23,2.234-1.388-1.388,2.234-2.227a.977.977,0,0,0,.136-1.213A7.931,7.931,0,0,1,33.4,19.32a.976.976,0,0,0-.951-.76H29.306V16.607h3.146a.976.976,0,0,0,.951-.757,7.935,7.935,0,0,1,1.008-2.424.977.977,0,0,0-.136-1.213l-2.234-2.23L33.429,8.6l2.227,2.234a.977.977,0,0,0,1.213.136,7.931,7.931,0,0,1,2.424-1.008.976.976,0,0,0,.76-.951V5.861h1.954V9.007a.976.976,0,0,0,.757.951,7.936,7.936,0,0,1,2.424,1.008A.977.977,0,0,0,46.4,10.83L48.628,8.6l1.388,1.388-2.234,2.227a.977.977,0,0,0-.136,1.213,7.931,7.931,0,0,1,1.008,2.424.976.976,0,0,0,.951.76h3.146v1.954H49.605a.976.976,0,0,0-.951.757,7.936,7.936,0,0,1-1.008,2.424.977.977,0,0,0,.136,1.213l2.234,2.23-1.388,1.388L46.4,24.337a.977.977,0,0,0-1.213-.136A7.923,7.923,0,0,1,42.762,25.209Zm0,0" fill="#d6cfff"></path>
    <path id="Path_94" d="M282.376,266.746H279a9.791,9.791,0,0,0-.659-1.586l2.391-2.393a.976.976,0,0,0,0-1.381l-2.765-2.765a.976.976,0,0,0-1.381,0l-2.393,2.391a9.789,9.789,0,0,0-1.586-.659v-3.376a.977.977,0,0,0-.977-.977h-3.907a.977.977,0,0,0-.977.977v3.376a9.789,9.789,0,0,0-1.586.659l-2.393-2.391a.976.976,0,0,0-1.381,0l-2.765,2.765a.976.976,0,0,0,0,1.381l2.391,2.393a9.788,9.788,0,0,0-.659,1.586h-3.376a.977.977,0,0,0-.977.977v3.907a.977.977,0,0,0,.977.977h3.376a9.789,9.789,0,0,0,.659,1.586l-2.391,2.393a.976.976,0,0,0,0,1.381l2.765,2.765a.976.976,0,0,0,1.381,0l2.393-2.391a9.789,9.789,0,0,0,1.586.659v3.376a.977.977,0,0,0,.977.977h3.907a.977.977,0,0,0,.977-.977V279a9.789,9.789,0,0,0,1.586-.659l2.393,2.391a.976.976,0,0,0,1.381,0l2.765-2.765a.976.976,0,0,0,0-1.381l-2.391-2.393a9.792,9.792,0,0,0,.659-1.586h3.376a.977.977,0,0,0,.977-.977v-3.907A.977.977,0,0,0,282.376,266.746Zm-.977,3.908h-3.146a.976.976,0,0,0-.951.757,7.937,7.937,0,0,1-1.008,2.424.977.977,0,0,0,.136,1.213l2.234,2.23-1.388,1.388-2.227-2.234a.977.977,0,0,0-1.213-.136,7.932,7.932,0,0,1-2.424,1.008.976.976,0,0,0-.76.951V281.4H268.7v-3.146a.976.976,0,0,0-.757-.951,7.937,7.937,0,0,1-2.424-1.008.977.977,0,0,0-1.213.136l-2.23,2.234-1.388-1.388,2.234-2.227a.977.977,0,0,0,.136-1.212,7.931,7.931,0,0,1-1.008-2.424.976.976,0,0,0-.951-.76h-3.146V268.7H261.1a.976.976,0,0,0,.951-.757,7.936,7.936,0,0,1,1.008-2.424.977.977,0,0,0-.136-1.212l-2.234-2.23,1.388-1.388,2.227,2.234a.977.977,0,0,0,1.212.136,7.93,7.93,0,0,1,2.424-1.008.976.976,0,0,0,.76-.951v-3.146h1.954V261.1a.976.976,0,0,0,.757.951,7.935,7.935,0,0,1,2.424,1.008.977.977,0,0,0,1.213-.136l2.23-2.234,1.388,1.388-2.234,2.227a.977.977,0,0,0-.136,1.212,7.933,7.933,0,0,1,1.008,2.424.977.977,0,0,0,.951.76H281.4Zm0,0" transform="translate(-224.74 -224.74)" fill="#d6cfff"></path>
    <path id="Path_95" d="M26.931,32H24.977a.977.977,0,0,0,0,1.954h1.954a.977.977,0,1,0,0-1.954Zm0,0" transform="translate(-21.069 -28.093)" fill="#d6cfff"></path>
    <path id="Path_96" d="M67.907,32H64.977a.977.977,0,1,0,0,1.954h2.931a.977.977,0,1,0,0-1.954Zm0,0" transform="translate(-56.185 -28.093)" fill="#d6cfff"></path>
    <path id="Path_97" d="M119.815,32h-6.838a.977.977,0,1,0,0,1.954h6.838a.977.977,0,1,0,0-1.954Zm0,0" transform="translate(-98.324 -28.093)" fill="#d6cfff"></path>
    <path id="Path_98" d="M293.861,97.954a.977.977,0,1,0,0-1.954,5.861,5.861,0,1,0,0,11.722.977.977,0,1,0,0-1.954,3.907,3.907,0,1,1,0-7.815Zm0,0" transform="translate(-252.833 -84.278)" fill="#d6cfff"></path>
    <path id="Path_99" d="M325.861,320a5.861,5.861,0,1,0,5.861,5.861A5.862,5.862,0,0,0,325.861,320Zm0,9.769a3.908,3.908,0,1,1,3.908-3.908A3.908,3.908,0,0,1,325.861,329.769Zm0,0" transform="translate(-280.925 -280.925)" fill="#d6cfff"></path>
  </symbol>
  <symbol id="04 Monthly backups" xmlns="http://www.w3.org/2000/svg" viewBox="0 0 56.01 56.014">
    <g id="Group_46" transform="translate(0)">
      <g id="Group_45">
        <path id="Path_87" d="M40.61,35.35l7.826-7.826L53,24.263a.943.943,0,0,0,.233-.242l2.642-3.957a.934.934,0,0,0-.117-1.179l-2.642-2.642a.933.933,0,0,0-1.178-.116L47.976,18.77a.924.924,0,0,0-.242.233l-3.26,4.558-4.316,4.316V8.112c0-.015-.007-.027-.008-.042,0-.046.008-.093.008-.135C40.158,2.781,29.818,0,20.088,0S.018,2.781.018,7.935c0,.045.007.093.008.133,0,.015-.008.027-.008.042V36.815c0,4.5,8.177,7.906,19.158,8.086L16.81,47.267a2.8,2.8,0,0,0,0,3.961l3.96,3.962a2.806,2.806,0,0,0,3.961,0l7.375-7.375a2.781,2.781,0,0,0,.821-1.982V44.515a.933.933,0,0,1,.933-.933h1.32a2.777,2.777,0,0,0,1.981-.821l.153-.153L49.543,54.837a3.964,3.964,0,0,0,2.8,1.177,3.651,3.651,0,0,0,2.455-.933,3.734,3.734,0,0,0,.133-5.414ZM20.088,1.867c10.727,0,18.2,3.2,18.2,6.068S30.815,14,20.088,14s-18.2-3.2-18.2-6.068S9.361,1.867,20.088,1.867Zm-18.2,34.95V30.805a12.774,12.774,0,0,0,3.583,2.166,39.191,39.191,0,0,0,14.62,2.5.933.933,0,1,0,0-1.867A37.287,37.287,0,0,1,6.2,31.252c-2.739-1.151-4.311-2.61-4.311-4V20.978A13.115,13.115,0,0,0,5.5,22.948a35.516,35.516,0,0,0,8.413,1.913.853.853,0,0,0,.108.007.934.934,0,0,0,.106-1.86,33.657,33.657,0,0,1-7.962-1.8c-2.681-1.018-4.281-2.337-4.281-3.524V11.426c3.412,2.907,10.974,4.443,18.2,4.443s14.791-1.537,18.2-4.44v6.254c0,1.009-1.164,2.127-3.194,3.068a.933.933,0,1,0,.786,1.693,11.36,11.36,0,0,0,2.407-1.46v8.759l-1.643,1.643-3.585-3.582A8.4,8.4,0,0,0,21.824,17.379a.934.934,0,0,0-.3,1.519l3.7,3.71a1.851,1.851,0,0,1,0,2.636,1.907,1.907,0,0,1-2.639,0l-3.706-3.7a.934.934,0,0,0-1.519.3A8.411,8.411,0,0,0,27.791,33.086l1.6,1.6-.153.153a2.782,2.782,0,0,0-.821,1.98v1.32a.933.933,0,0,1-.933.933H26.164a2.78,2.78,0,0,0-1.98.821l-3.145,3.145c-.315.007-.631.013-.951.013C9.361,43.053,1.885,39.767,1.885,36.817ZM26.546,21.284l-2.6-2.6a6.541,6.541,0,0,1,7.17,9,.933.933,0,0,0,.2,1.027l4.008,4.008L33.97,34.07a2.875,2.875,0,0,0-3.115-.56l-2.172-2.172a.934.934,0,0,0-1.027-.2,6.547,6.547,0,0,1-9-7.171l.949.944.034.033,1.623,1.62a3.734,3.734,0,1,0,5.279-5.279ZM36.6,40.658l-.774.774a.927.927,0,0,1-.652.284v0h-1.32a2.8,2.8,0,0,0-2.8,2.8v1.321a.928.928,0,0,1-.273.661L23.41,53.87a.961.961,0,0,1-1.32,0l-3.962-3.961a.934.934,0,0,1,0-1.32L25.5,41.215a.941.941,0,0,1,.66-.273h1.32a2.8,2.8,0,0,0,2.8-2.8v-1.32a.933.933,0,0,1,.273-.66l.773-.773a.961.961,0,0,1,1.32,0l.653.653,2.642,2.642h.006l.653.653a.934.934,0,0,1,0,1.321Zm.007-3.95-1.322-1.322,2.018-2.018L39.878,30.8l.009-.009,5.965-5.957c.019-.019.025-.044.042-.063s.041-.032.057-.053l3.2-4.486,3.18-2.118,1.559,1.558-2.123,3.18-4.481,3.206c-.022.016-.034.04-.054.057a.733.733,0,0,0-.063.042ZM53.547,53.7a1.98,1.98,0,0,1-2.683-.181L38.5,41.154a2.8,2.8,0,0,0-.566-3.126L39.29,36.67,53.613,50.992a1.845,1.845,0,0,1,.548,1.36A1.873,1.873,0,0,1,53.547,53.7Z" transform="translate(-0.018)" fill="#d6cfff"></path>
        <path id="Path_88" d="M35.748,145.375a1.091,1.091,0,0,0-.308-.2.934.934,0,0,0-.709,0,.964.964,0,0,0-.308.2,1.078,1.078,0,0,0-.2.308.879.879,0,0,0,0,.709.964.964,0,0,0,.2.308.947.947,0,0,0,1.326,0,.982.982,0,0,0,.271-.663.8.8,0,0,0-.075-.355A1.081,1.081,0,0,0,35.748,145.375Z" transform="translate(-30.418 -129.235)" fill="#d6cfff"></path>
        <path id="Path_89" d="M35.748,239.2a1.091,1.091,0,0,0-.308-.2.933.933,0,0,0-.709,0,.964.964,0,0,0-.308.2,1.079,1.079,0,0,0-.2.308.879.879,0,0,0,0,.709.964.964,0,0,0,.2.308.947.947,0,0,0,1.326,0,.982.982,0,0,0,.271-.658.8.8,0,0,0-.075-.355A1.081,1.081,0,0,0,35.748,239.2Z" transform="translate(-30.418 -212.795)" fill="#d6cfff"></path>
        <path id="Path_90" d="M35.748,324.575a1.091,1.091,0,0,0-.308-.2.933.933,0,0,0-.709,0,.964.964,0,0,0-.308.2,1.079,1.079,0,0,0-.2.308.879.879,0,0,0,0,.709.964.964,0,0,0,.2.308.947.947,0,0,0,1.326,0,.982.982,0,0,0,.271-.663.8.8,0,0,0-.075-.355A1.081,1.081,0,0,0,35.748,324.575Z" transform="translate(-30.418 -288.831)" fill="#d6cfff"></path>
        <path id="Path_91" d="M60.632,46.382a.933.933,0,0,0,.3-.048l5.6-1.867a.935.935,0,1,0-.59-1.774l-5.6,1.867a.933.933,0,0,0,.295,1.821Z" transform="translate(-53.164 -37.981)" fill="#d6cfff"></path>
        <path id="Path_92" d="M85.41,48.577a.933.933,0,0,0,1.192.566l13.069-4.668a.934.934,0,1,0-.627-1.759L85.975,47.384A.934.934,0,0,0,85.41,48.577Z" transform="translate(-76.02 -37.995)" fill="#d6cfff"></path>
      </g>
    </g>
  </symbol>
  <symbol xmlns="http://www.w3.org/2000/svg" xmlns:xlink="http://www.w3.org/1999/xlink" viewBox="0 0 34 26" id="hamburger">
    <defs>
      <clipPath id="a">
        <rect width="34" height="26" fill="none"></rect>
      </clipPath>
    </defs>
    <g clip-path="url(#a)">
      <g transform="translate(-65.5 -78.5)">
        <line x2="27" transform="translate(68.5 81.5)" fill="none" stroke="#fff" stroke-linecap="round" stroke-width="5"></line>
      </g>
      <g transform="translate(-65.5 -69.5)">
        <line x2="27" transform="translate(68.5 81.5)" fill="none" stroke="#fff" stroke-linecap="round" stroke-width="5"></line>
      </g>
      <g transform="translate(-65.5 -60.5)">
        <line x2="27" transform="translate(68.5 81.5)" fill="none" stroke="#fff" stroke-linecap="round" stroke-width="5"></line>
      </g>
    </g>
  </symbol>
  <symbol xmlns="http://www.w3.org/2000/svg" viewBox="0 0 50 2" id="line">
    <rect width="50" height="2" fill="#9482ff"></rect>
  </symbol>
  <symbol id="01 Website design" xmlns="http://www.w3.org/2000/svg" viewBox="0 0 56.01 55.83">
    <g id="Group_6" transform="translate(39.438 39.374)">
      <g id="Group_5">
        <path id="Path_3" d="M370.638,360.812a.822.822,0,0,0-.9.178l-8.984,8.984a.822.822,0,0,0,.581,1.4h8.984a.822.822,0,0,0,.822-.822v-8.984A.822.822,0,0,0,370.638,360.812Zm-7.314,8.922,6.177-6.177v6.177Z" transform="translate(-360.517 -360.749)" fill="#d6cfff"></path>
      </g>
    </g>
    <g id="Group_8" transform="translate(0 0)">
      <g id="Group_7">
        <path id="Path_4" d="M55.5,27.08a.822.822,0,0,0-.9.178L52.144,29.72V12.979a.822.822,0,0,0-.822-.822H45.006L47.3,9.864h0l2.209-2.209a2.507,2.507,0,0,0,0-3.545L46.954,1.554a2.507,2.507,0,0,0-3.545,0L41.2,3.764,38.528,6.435l-5.722,5.722H7.288V4.024A.822.822,0,0,0,6.466,3.2,6.473,6.473,0,0,0,0,9.668V44.585a.824.824,0,0,0,.019.177,6.227,6.227,0,0,0,6.208,5.754H31.349l-4.731,4.731a.822.822,0,0,0,.581,1.4H55.188a.822.822,0,0,0,.822-.822V27.839A.822.822,0,0,0,55.5,27.08ZM44.572,2.717a.863.863,0,0,1,1.22,0l2.555,2.555a.863.863,0,0,1,0,1.22L46.717,8.121,42.943,4.346ZM41.78,5.509l3.775,3.775-1.508,1.508L40.272,7.017ZM54.366,37.077H52.849a.822.822,0,1,0,0,1.644h1.517V41.2H52.849a.822.822,0,1,0,0,1.644h1.517V45.32H52.849a.822.822,0,1,0,0,1.644h1.517v2.477H52.849a.822.822,0,1,0,0,1.644h1.517v3.921H29.183l8.3-8.3a.822.822,0,0,0-1.163-1.163l-3.332,3.332H6.228a4.557,4.557,0,0,1-4.579-4.435q.007-.234.036-.464v0q.014-.109.033-.217l0-.025q.017-.1.039-.192l.012-.053q.019-.081.04-.161c.008-.029.016-.057.025-.086s.025-.083.038-.125.027-.082.042-.123.02-.057.031-.085c.02-.054.041-.107.063-.16l.019-.046c.028-.066.057-.131.088-.195l0-.008a4.84,4.84,0,0,1,3.364-2.631l.012,0c.068-.014.137-.026.206-.037l.035-.006c.062-.01.126-.017.189-.024l.053-.006c.061-.006.122-.01.184-.014l.058,0q.121-.006.243-.006a.822.822,0,0,0,.822-.822V32.98a.822.822,0,1,0-1.644,0v5.19a6.421,6.421,0,0,0-3.693,1.787c-.107.1-.208.213-.307.323V9.668a4.83,4.83,0,0,1,4-4.752V29.692h0a.822.822,0,0,0,1.644,0h0V13.8H31.162l-4.545,4.545a.822.822,0,0,0,1.163,1.163l5.948-5.948h0l5.381-5.381,3.774,3.775-.443.443h0L25.863,28.974,22.089,25.2l3.267-3.267a.822.822,0,0,0-1.163-1.163l-3.849,3.849a.826.826,0,0,0-.058.065l-.017.023c-.012.015-.023.031-.034.047l-.017.029c-.009.015-.018.031-.026.047l-.015.031c-.007.016-.014.032-.02.049l-.007.017-1.6,4.537-1.092,3.094a.831.831,0,0,0-.033.125H14.691a.822.822,0,1,0,0,1.644H37.457a.822.822,0,1,0,0-1.644H21.123l5.014-1.77.012-.005.058-.024.022-.01c.02-.01.039-.021.058-.032l.018-.011c.02-.013.039-.027.058-.041l.014-.011a.826.826,0,0,0,.067-.059L43.361,13.8H50.5V31.364L38.74,43.124a.822.822,0,0,0,0,1.163.841.841,0,0,0,.062.056.822.822,0,0,0,1.1-.056h0L54.366,29.824ZM24.36,29.8,22,30.627l-1.569-1.569.831-2.355Z" transform="translate(0 -0.82)" fill="#d6cfff"></path>
      </g>
    </g>
  </symbol>
</svg>
