<svg width="0" height="0" class="hidden">
  <symbol xmlns="http://www.w3.org/2000/svg" viewBox="0 0 71.412 71.179" id="design">
    <g id="_01_Website_design" transform="translate(-8.516)">
      <g id="Group_6" transform="translate(50.282 50.2)">
        <g id="Group_5">
          <path id="Path_3" d="M373.421,360.83a1.048,1.048,0,0,0-1.148.227l-11.455,11.455a1.048,1.048,0,0,0,.741,1.785h11.455a1.048,1.048,0,0,0,1.048-1.048V361.793A1.048,1.048,0,0,0,373.421,360.83ZM364.1,372.205l7.876-7.876v7.876Z" transform="translate(-360.516 -360.748)" fill="#d6cfff"></path>
        </g>
      </g>
      <g id="Group_8" transform="translate(0 0)">
        <g id="Group_7">
          <path id="Path_4" d="M70.762,34.3a1.048,1.048,0,0,0-1.147.227l-3.131,3.139V16.323a1.048,1.048,0,0,0-1.048-1.048H57.382l2.925-2.924h0l2.816-2.816a3.2,3.2,0,0,0,0-4.52L59.866,1.756a3.2,3.2,0,0,0-4.52,0L52.53,4.574,49.123,7.979l-7.3,7.3H9.292V4.905A1.048,1.048,0,0,0,8.244,3.854,8.253,8.253,0,0,0,0,12.1V56.62a1.051,1.051,0,0,0,.024.226,7.939,7.939,0,0,0,7.915,7.336H39.97l-6.032,6.032A1.048,1.048,0,0,0,34.679,72H70.364a1.048,1.048,0,0,0,1.048-1.048V35.269A1.048,1.048,0,0,0,70.762,34.3ZM56.829,3.239a1.1,1.1,0,0,1,1.556,0L61.642,6.5a1.1,1.1,0,0,1,0,1.555l-2.078,2.077L54.752,5.316ZM53.269,6.8l4.813,4.813L56.16,13.534,51.346,8.721ZM69.316,47.047H67.382a1.048,1.048,0,1,0,0,2.1h1.934V52.3H67.382a1.048,1.048,0,1,0,0,2.1h1.934v3.157H67.382a1.048,1.048,0,1,0,0,2.1h1.934v3.158H67.382a1.048,1.048,0,1,0,0,2.1h1.934v5H37.208L47.791,59.324a1.049,1.049,0,1,0-1.483-1.483L42.059,62.09H7.941A5.81,5.81,0,0,1,2.1,56.435q.009-.3.046-.592h0q.018-.139.042-.277v-.032q.022-.127.05-.245l.015-.068q.024-.1.051-.205c.01-.037.02-.073.032-.11l.048-.159c.017-.054.034-.1.054-.157s.025-.073.04-.108c.025-.069.052-.136.08-.2l.024-.059c.036-.084.073-.167.112-.249v-.01a6.171,6.171,0,0,1,4.289-3.354H7c.087-.018.175-.033.263-.047l.045-.008c.079-.013.161-.022.241-.031l.068-.008c.078-.008.156-.013.235-.018h.074q.154-.008.31-.008a1.048,1.048,0,0,0,1.048-1.048V41.824a1.048,1.048,0,0,0-2.1,0v6.617a8.187,8.187,0,0,0-4.709,2.278c-.136.127-.265.272-.391.412V12.1a6.158,6.158,0,0,1,5.1-6.059V37.632h0a1.048,1.048,0,1,0,2.1,0h0V17.369H39.731l-5.795,5.795a1.049,1.049,0,0,0,1.483,1.483L43,17.063h0L49.864,10.2l4.812,4.813-.565.565h0L32.975,36.716,28.163,31.9l4.165-4.165a1.049,1.049,0,0,0-1.483-1.483l-4.907,4.907a1.051,1.051,0,0,0-.074.083l-.022.029c-.015.019-.029.04-.043.06l-.022.037c-.011.019-.023.04-.033.06l-.019.04c-.009.02-.018.041-.025.062l-.009.022-2.04,5.785-1.392,3.945a1.059,1.059,0,0,0-.042.159H18.731a1.048,1.048,0,1,0,0,2.1H47.757a1.048,1.048,0,0,0,0-2.1H26.932l6.393-2.257.015-.006.074-.031.028-.013c.026-.013.05-.027.074-.041l.023-.014c.026-.017.05-.034.074-.052l.018-.014a1.051,1.051,0,0,0,.085-.075L55.285,17.369h9.1V39.763L49.393,54.757a1.048,1.048,0,0,0,0,1.483q.038.038.079.071a1.048,1.048,0,0,0,1.4-.071h0L69.316,37.8ZM31.059,37.769,28.05,38.824l-2-2,1.06-3Z" transform="translate(8.516 -0.82)" fill="#d6cfff"></path>
        </g>
      </g>
    </g>
  </symbol>
  <symbol id="updates" xmlns="http://www.w3.org/2000/svg" viewBox="0 0 71.417 71.411">
    <path id="Path_44" d="M44.715,31.3a3.315,3.315,0,1,0,3.315,3.315A3.315,3.315,0,0,0,44.715,31.3Zm0,4.507a.5.5,0,1,1,0,.006Zm0,0" transform="translate(-35.628 -26.94)" fill="#d6cfff"></path>
    <path id="Path_45" d="M108.335,31.3a3.315,3.315,0,1,0,3.315,3.315A3.315,3.315,0,0,0,108.335,31.3Zm0,4.507a.5.5,0,1,1,0,.006Zm0,0" transform="translate(-90.377 -26.94)" fill="#d6cfff"></path>
    <path id="Path_46" d="M171.959,31.3a3.315,3.315,0,1,0,3.315,3.315A3.315,3.315,0,0,0,171.959,31.3Zm0,4.507a.5.5,0,1,1,0,.006Zm0,0" transform="translate(-145.127 -26.94)" fill="#d6cfff"></path>
    <path id="Path_47" d="M67.539,0H3.873A3.877,3.877,0,0,0,0,3.873V50.49a3.877,3.877,0,0,0,3.873,3.873h6.815a1.056,1.056,0,0,0,.087,1.4l5.076,5.076a21.657,21.657,0,0,0-1,2.4H7.677A1.056,1.056,0,0,0,6.621,64.3v6.057a1.056,1.056,0,0,0,1.056,1.057H28.523a1.057,1.057,0,0,0,1.057-1.057,5.846,5.846,0,1,1,11.691,0,1.057,1.057,0,0,0,1.056,1.057H63.173a1.057,1.057,0,0,0,1.057-1.057V64.3a1.057,1.057,0,0,0-1.057-1.057H56a21.656,21.656,0,0,0-1-2.4l5.076-5.076a1.057,1.057,0,0,0,.085-1.4h7.378a3.877,3.877,0,0,0,3.873-3.879V24.352a1.056,1.056,0,0,0-2.113,0V50.49a1.762,1.762,0,0,1-1.761,1.761H58.059l-6.226-6.223V38.8a1.057,1.057,0,0,0-1.057-1.057h-1.9v-6.51l1.487-1.376a1.057,1.057,0,0,0,.292-1.09L48.123,20.6a1.057,1.057,0,0,0-1.009-.743H44.3a1.057,1.057,0,0,0-1.009.743l-2.535,8.169a1.057,1.057,0,0,0,.292,1.09l1.492,1.376v6.51h-1.9a1.057,1.057,0,0,0-1.057,1.057v2.746H31.269V39.947l4.057-4.057a1.056,1.056,0,0,0,.31-.747V26.48a1.056,1.056,0,0,0-.315-.751l-5.633-5.564a1.057,1.057,0,0,0-1.8.751v9.417l-2.746,1.729L22.4,30.333v-.6a1.057,1.057,0,1,0-2.113,0v1.184a1.056,1.056,0,0,0,.493.892l3.8,2.394a1.056,1.056,0,0,0,1.126,0l3.8-2.394A1.056,1.056,0,0,0,30,30.916V23.445l3.522,3.477V34.7l-4.06,4.061a1.057,1.057,0,0,0-.31.747V41.57a1.057,1.057,0,0,0-.845,1.035v7.177a21.667,21.667,0,0,0-2.4,1L21.127,46V39.509a1.057,1.057,0,0,0-.31-.747L16.76,34.705V26.928l3.522-3.477v1.34a1.057,1.057,0,1,0,2.113,0V20.916a1.057,1.057,0,0,0-1.8-.752l-5.634,5.564a1.056,1.056,0,0,0-.314.751v8.662a1.056,1.056,0,0,0,.31.747l4.057,4.057v6.082l-6.226,6.228H3.873A1.762,1.762,0,0,1,2.113,50.49V15.352H69.3V19.44a1.057,1.057,0,0,0,2.113,0V3.873A3.877,3.877,0,0,0,67.539,0ZM44.31,30l-1.343-1.238,2.108-6.789h1.26l2.115,6.789L47.108,30a1.057,1.057,0,0,0-.34.776v6.972H44.65V30.776A1.058,1.058,0,0,0,44.31,30Zm5.415,9.861V46l-4.781,4.781a21.771,21.771,0,0,0-2.4-1V42.608a1.057,1.057,0,0,0-.845-1.035V39.861ZM26.2,53a19.566,19.566,0,0,1,3.474-1.441,1.057,1.057,0,0,0,.747-1.011V43.666h10v6.885a1.057,1.057,0,0,0,.749,1.011A19.566,19.566,0,0,1,44.645,53a1.057,1.057,0,0,0,1.244-.185l4.872-4.872,6.114,6.114h0l.958.958-4.872,4.872a1.057,1.057,0,0,0-.185,1.244,19.531,19.531,0,0,1,1.441,3.474,1.057,1.057,0,0,0,1.01.747h6.885V69.3H51.376a15.995,15.995,0,0,0-22.45-13.553,1.057,1.057,0,0,0,.859,1.93A13.882,13.882,0,0,1,49.258,69.3H43.313a7.959,7.959,0,0,0-15.775,0H21.589a13.725,13.725,0,0,1,4.346-9.066,1.057,1.057,0,0,0-1.445-1.541A16.055,16.055,0,0,0,19.474,69.3H8.732V65.355h6.885a1.057,1.057,0,0,0,1.011-.747,19.532,19.532,0,0,1,1.441-3.474,1.057,1.057,0,0,0-.185-1.244l-4.872-4.872.958-.958h0l6.112-6.114,4.872,4.872A1.057,1.057,0,0,0,26.2,53ZM2.113,13.24V3.873A1.762,1.762,0,0,1,3.873,2.113H67.539A1.762,1.762,0,0,1,69.3,3.873V13.24Zm0,0" transform="translate(0 0)" fill="#d6cfff"></path>
  </symbol>
  <symbol id="development" xmlns="http://www.w3.org/2000/svg" viewBox="0 0 74.731 74.731">
    <path id="Path_93" d="M56.047,38.611v-4.3a12.479,12.479,0,0,0,2.022-.84l3.051,3.049a1.244,1.244,0,0,0,1.761,0l3.525-3.525a1.244,1.244,0,0,0,0-1.761l-3.049-3.051a12.478,12.478,0,0,0,.84-2.022h4.3a1.246,1.246,0,0,0,1.246-1.246V19.928A1.246,1.246,0,0,0,68.5,18.682H64.2a12.479,12.479,0,0,0-.84-2.022l3.049-3.051a1.244,1.244,0,0,0,0-1.761L62.881,8.324a1.2,1.2,0,0,0-.607-.312V3.737A3.737,3.737,0,0,0,58.539,0H3.737A3.737,3.737,0,0,0,0,3.737v54.8a3.737,3.737,0,0,0,3.737,3.737H21.714a1.2,1.2,0,0,0,.312.607l3.525,3.525a1.244,1.244,0,0,0,1.761,0l3.051-3.049a12.478,12.478,0,0,0,2.022.84v4.3a1.246,1.246,0,0,0,1.246,1.246h4.981A1.246,1.246,0,0,0,39.859,68.5V63.52a1.246,1.246,0,1,0-2.491,0v3.737H34.874V63.246a1.244,1.244,0,0,0-.965-1.212,10.117,10.117,0,0,1-3.091-1.285,1.246,1.246,0,0,0-1.547.173L26.428,63.77,24.658,62l.091-.089,2.76-2.751a1.246,1.246,0,0,0,.173-1.547,10.112,10.112,0,0,1-1.29-3.088,1.244,1.244,0,0,0-1.213-.969H21.174v-2.49h4.011A1.244,1.244,0,0,0,26.4,50.1a10.118,10.118,0,0,1,1.285-3.091,1.246,1.246,0,0,0-.173-1.547L24.661,42.62l1.77-1.77L29.27,43.7a1.246,1.246,0,0,0,1.547.173,10.112,10.112,0,0,1,3.089-1.288,1.244,1.244,0,0,0,.969-1.213V37.365h2.491v4.011a1.244,1.244,0,0,0,.965,1.212,10.118,10.118,0,0,1,3.091,1.285,1.246,1.246,0,1,0,1.331-2.108,12.414,12.414,0,0,0-2.894-1.343v-4.3a1.246,1.246,0,0,0-1.246-1.246H33.629a1.246,1.246,0,0,0-1.246,1.246v4.3a12.479,12.479,0,0,0-2.022.84L27.31,38.215a1.244,1.244,0,0,0-1.761,0l-3.525,3.525a1.244,1.244,0,0,0,0,1.761l3.049,3.051a12.478,12.478,0,0,0-.84,2.022h-4.3a1.246,1.246,0,0,0-1.246,1.246V54.8a1.246,1.246,0,0,0,1.246,1.246h4.3a12.479,12.479,0,0,0,.84,2.022l-1.714,1.715H3.737a1.246,1.246,0,0,1-1.246-1.246V12.455H37.9a1.225,1.225,0,0,0,.312,1.154l3.049,3.051a12.478,12.478,0,0,0-.84,2.022h-4.3a1.246,1.246,0,0,0-1.246,1.246V24.91a1.246,1.246,0,0,0,1.246,1.246h4.3a12.479,12.479,0,0,0,.84,2.022l-3.049,3.051a1.244,1.244,0,0,0,0,1.761l3.525,3.525a1.244,1.244,0,0,0,1.761,0l3.051-3.049a12.48,12.48,0,0,0,2.022.84v4.3a1.246,1.246,0,0,0,1.246,1.246H54.8A1.246,1.246,0,0,0,56.047,38.611ZM2.491,3.737A1.246,1.246,0,0,1,3.737,2.491h54.8a1.246,1.246,0,0,1,1.246,1.246V9.659l-1.714,1.714a12.478,12.478,0,0,0-2.022-.84V6.227A1.246,1.246,0,0,0,54.8,4.981H49.82a1.246,1.246,0,0,0-1.246,1.246v4.3a12.478,12.478,0,0,0-2.022.84L43.5,8.324a1.244,1.244,0,0,0-1.761,0L40.1,9.964H2.491Zm52.03,28.4a1.244,1.244,0,0,0-.965,1.213v4.011h-2.49V33.354a1.244,1.244,0,0,0-.965-1.212,10.118,10.118,0,0,1-3.091-1.286,1.246,1.246,0,0,0-1.547.173L42.62,33.877l-1.77-1.77L43.7,29.267a1.246,1.246,0,0,0,.173-1.547,10.112,10.112,0,0,1-1.288-3.088,1.244,1.244,0,0,0-1.213-.969H37.365v-2.49h4.011a1.244,1.244,0,0,0,1.212-.965,10.117,10.117,0,0,1,1.285-3.091,1.246,1.246,0,0,0-.173-1.547l-2.848-2.843,1.77-1.763,2.839,2.848a1.246,1.246,0,0,0,1.547.173A10.112,10.112,0,0,1,50.1,12.7a1.244,1.244,0,0,0,.969-1.213V7.473h2.491v4.011a1.244,1.244,0,0,0,.965,1.212,10.118,10.118,0,0,1,3.091,1.285,1.246,1.246,0,0,0,1.545-.173L62,10.965l1.77,1.77-2.848,2.839a1.246,1.246,0,0,0-.173,1.547,10.112,10.112,0,0,1,1.285,3.091,1.244,1.244,0,0,0,1.213.969h4.011v2.491H63.246a1.244,1.244,0,0,0-1.212.965,10.118,10.118,0,0,1-1.285,3.091,1.246,1.246,0,0,0,.173,1.547l2.848,2.843L62,33.887,59.16,31.029a1.246,1.246,0,0,0-1.547-.173A10.1,10.1,0,0,1,54.521,32.141Zm0,0" transform="translate(0)" fill="#d6cfff"></path>
    <path id="Path_94" d="M289.629,269.7h-4.3a12.486,12.486,0,0,0-.84-2.022l3.049-3.051a1.244,1.244,0,0,0,0-1.761l-3.525-3.525a1.244,1.244,0,0,0-1.761,0L279.2,262.39a12.475,12.475,0,0,0-2.022-.84v-4.3A1.246,1.246,0,0,0,275.928,256h-4.981a1.246,1.246,0,0,0-1.246,1.246v4.3a12.477,12.477,0,0,0-2.022.84l-3.051-3.048a1.244,1.244,0,0,0-1.761,0l-3.525,3.525a1.244,1.244,0,0,0,0,1.761l3.048,3.051a12.481,12.481,0,0,0-.84,2.022h-4.3A1.246,1.246,0,0,0,256,270.947v4.981a1.246,1.246,0,0,0,1.246,1.246h4.3a12.479,12.479,0,0,0,.84,2.022l-3.048,3.051a1.244,1.244,0,0,0,0,1.761l3.525,3.525a1.244,1.244,0,0,0,1.761,0l3.051-3.048a12.478,12.478,0,0,0,2.022.84v4.3a1.246,1.246,0,0,0,1.246,1.246h4.981a1.246,1.246,0,0,0,1.246-1.246v-4.3a12.477,12.477,0,0,0,2.022-.84l3.051,3.049a1.244,1.244,0,0,0,1.761,0l3.525-3.525a1.244,1.244,0,0,0,0-1.761l-3.048-3.051a12.488,12.488,0,0,0,.84-2.022h4.3a1.246,1.246,0,0,0,1.246-1.246v-4.981a1.246,1.246,0,0,0-1.246-1.246Zm-1.246,4.983h-4.011a1.244,1.244,0,0,0-1.212.965,10.119,10.119,0,0,1-1.285,3.091,1.246,1.246,0,0,0,.173,1.547l2.848,2.843-1.77,1.77-2.839-2.848a1.246,1.246,0,0,0-1.547-.173,10.115,10.115,0,0,1-3.091,1.285,1.244,1.244,0,0,0-.969,1.212v4.01h-2.489v-4.011a1.244,1.244,0,0,0-.965-1.212,10.119,10.119,0,0,1-3.091-1.285,1.246,1.246,0,0,0-1.547.173l-2.843,2.848-1.77-1.77,2.848-2.839a1.246,1.246,0,0,0,.173-1.545,10.111,10.111,0,0,1-1.285-3.091,1.244,1.244,0,0,0-1.212-.969H258.49v-2.491H262.5a1.244,1.244,0,0,0,1.212-.965A10.119,10.119,0,0,1,265,268.137a1.246,1.246,0,0,0-.173-1.545l-2.848-2.843,1.77-1.77,2.839,2.848a1.246,1.246,0,0,0,1.545.173,10.11,10.11,0,0,1,3.091-1.285,1.244,1.244,0,0,0,.969-1.213v-4.011h2.491V262.5a1.244,1.244,0,0,0,.965,1.212A10.118,10.118,0,0,1,278.74,265a1.246,1.246,0,0,0,1.547-.173l2.843-2.848,1.77,1.77-2.848,2.839a1.246,1.246,0,0,0-.173,1.545,10.114,10.114,0,0,1,1.285,3.091,1.246,1.246,0,0,0,1.213.969h4.01Zm0,0" transform="translate(-216.144 -216.144)" fill="#d6cfff"></path>
    <path id="Path_95" d="M27.737,32H25.246a1.246,1.246,0,0,0,0,2.491h2.491a1.246,1.246,0,0,0,0-2.491Zm0,0" transform="translate(-20.263 -27.019)" fill="#d6cfff"></path>
    <path id="Path_96" d="M68.981,32H65.246a1.246,1.246,0,1,0,0,2.491h3.737a1.246,1.246,0,0,0,0-2.491Zm0,0" transform="translate(-54.036 -27.019)" fill="#d6cfff"></path>
    <path id="Path_97" d="M121.964,32h-8.718a1.246,1.246,0,0,0,0,2.491h8.718a1.246,1.246,0,1,0,0-2.491Zm0,0" transform="translate(-94.563 -27.019)" fill="#d6cfff"></path>
    <path id="Path_98" d="M295.473,98.491a1.246,1.246,0,1,0,0-2.491,7.473,7.473,0,0,0,0,14.945,1.246,1.246,0,1,0,0-2.491,4.982,4.982,0,0,1,0-9.964Zm0,0" transform="translate(-243.162 -81.055)" fill="#d6cfff"></path>
    <path id="Path_99" d="M327.473,320a7.473,7.473,0,1,0,7.473,7.473A7.473,7.473,0,0,0,327.473,320Zm0,12.455a4.983,4.983,0,1,1,4.983-4.983A4.983,4.983,0,0,1,327.473,332.455Zm0,0" transform="translate(-270.18 -270.18)" fill="#d6cfff"></path>
  </symbol>
  <symbol xmlns="http://www.w3.org/2000/svg" viewBox="0 0 71.417 71.417" id="backups">
    <g id="Group_46" transform="translate(0 0)">
      <g id="Group_45" transform="translate(0 0)">
        <path id="Path_87" d="M51.772,45.071l9.978-9.978,5.819-4.158a1.2,1.2,0,0,0,.3-.309l3.369-5.045a1.191,1.191,0,0,0-.149-1.5L67.718,20.71a1.19,1.19,0,0,0-1.5-.148l-5.052,3.37a1.178,1.178,0,0,0-.309.3L56.7,30.04l-5.5,5.5v-25.2c0-.019-.009-.034-.01-.054,0-.059.01-.119.01-.172C51.2,3.546,38.013,0,25.607,0S.018,3.546.018,10.117c0,.057.009.119.01.17,0,.019-.01.034-.01.054v36.6c0,5.737,10.426,10.08,24.426,10.31l-3.017,3.017a3.57,3.57,0,0,0,0,5.05l5.049,5.052a3.578,3.578,0,0,0,5.05,0l9.4-9.4a3.546,3.546,0,0,0,1.047-2.527v-1.68a1.19,1.19,0,0,1,1.19-1.19h1.683a3.541,3.541,0,0,0,2.526-1.047l.2-.2L63.162,69.917a5.054,5.054,0,0,0,3.57,1.5,4.655,4.655,0,0,0,3.13-1.19,4.761,4.761,0,0,0,.17-6.9ZM25.607,2.38c13.677,0,23.2,4.08,23.2,7.737s-9.528,7.733-23.2,7.733S2.4,13.77,2.4,10.113,11.93,2.38,25.607,2.38ZM2.4,46.941V39.276a16.287,16.287,0,0,0,4.568,2.762,49.968,49.968,0,0,0,18.64,3.187,1.19,1.19,0,1,0,0-2.38,47.541,47.541,0,0,1-17.711-3c-3.492-1.468-5.5-3.328-5.5-5.1v-8a16.722,16.722,0,0,0,4.6,2.512A45.283,45.283,0,0,0,17.734,31.7a1.088,1.088,0,0,0,.138.009,1.191,1.191,0,0,0,.135-2.371A42.913,42.913,0,0,1,7.855,27.04C4.437,25.742,2.4,24.06,2.4,22.547V14.568c4.35,3.706,13.992,5.665,23.2,5.665s18.858-1.96,23.2-5.661v7.974c0,1.286-1.484,2.712-4.072,3.912a1.19,1.19,0,1,0,1,2.159,14.484,14.484,0,0,0,3.069-1.861V37.922l-2.095,2.095L42.14,35.45A10.71,10.71,0,0,0,27.82,22.158a1.191,1.191,0,0,0-.383,1.937l4.717,4.73a2.36,2.36,0,0,1,0,3.361,2.431,2.431,0,0,1-3.365,0l-4.725-4.717a1.191,1.191,0,0,0-1.937.382,10.724,10.724,0,0,0,13.3,14.333l2.04,2.04-.2.2a3.547,3.547,0,0,0-1.047,2.524v1.683a1.19,1.19,0,0,1-1.19,1.19H33.354a3.545,3.545,0,0,0-2.524,1.047l-4.01,4.01c-.4.009-.8.017-1.213.017C11.93,54.892,2.4,50.7,2.4,46.941Zm31.439-19.8-3.315-3.315A8.34,8.34,0,0,1,39.668,35.3a1.19,1.19,0,0,0,.255,1.309l5.11,5.11-1.726,1.723a3.666,3.666,0,0,0-3.972-.714l-2.769-2.769a1.191,1.191,0,0,0-1.309-.255,8.347,8.347,0,0,1-11.475-9.143l1.21,1.2.043.042L27.1,33.869a4.761,4.761,0,1,0,6.731-6.731Zm12.819,24.7-.987.987a1.182,1.182,0,0,1-.831.362H43.159a3.57,3.57,0,0,0-3.57,3.57v1.684a1.183,1.183,0,0,1-.348.843l-9.4,9.4a1.225,1.225,0,0,1-1.683,0l-5.052-5.05a1.191,1.191,0,0,1,0-1.683l9.4-9.4a1.2,1.2,0,0,1,.841-.348h1.683a3.57,3.57,0,0,0,3.57-3.57V46.948a1.19,1.19,0,0,1,.348-.841l.986-.986a1.225,1.225,0,0,1,1.683,0l.833.833,3.369,3.369h.008l.833.833A1.191,1.191,0,0,1,46.66,51.839Zm.009-5.036-1.686-1.686,2.573-2.573,3.283-3.274.011-.011,7.605-7.6c.024-.024.032-.056.054-.08s.052-.041.073-.068l4.08-5.72,4.054-2.7L68.7,25.082,66,29.136l-5.713,4.088c-.028.02-.043.051-.069.073a.936.936,0,0,0-.08.054Zm21.6,21.665a2.525,2.525,0,0,1-3.421-.231L49.082,52.471a3.57,3.57,0,0,0-.722-3.986l1.729-1.731,18.262,18.26a2.352,2.352,0,0,1,.7,1.734,2.388,2.388,0,0,1-.783,1.719Z" transform="translate(-0.018 0)" fill="#d6cfff"></path>
        <path id="Path_88" d="M36.188,145.449a1.391,1.391,0,0,0-.393-.255,1.191,1.191,0,0,0-.9,0,1.23,1.23,0,0,0-.393.255,1.375,1.375,0,0,0-.255.393,1.121,1.121,0,0,0,0,.9,1.228,1.228,0,0,0,.255.393,1.207,1.207,0,0,0,1.691,0,1.252,1.252,0,0,0,.346-.845,1.02,1.02,0,0,0-.1-.453,1.378,1.378,0,0,0-.251-.391Z" transform="translate(-29.392 -124.871)" fill="#d6cfff"></path>
        <path id="Path_89" d="M36.188,239.274a1.392,1.392,0,0,0-.393-.255,1.19,1.19,0,0,0-.9,0,1.229,1.229,0,0,0-.393.255,1.376,1.376,0,0,0-.255.393,1.121,1.121,0,0,0,0,.9,1.229,1.229,0,0,0,.255.393,1.207,1.207,0,0,0,1.691,0,1.252,1.252,0,0,0,.346-.839,1.02,1.02,0,0,0-.1-.453,1.378,1.378,0,0,0-.251-.4Z" transform="translate(-29.392 -205.608)" fill="#d6cfff"></path>
        <path id="Path_90" d="M36.188,324.649a1.39,1.39,0,0,0-.393-.255,1.19,1.19,0,0,0-.9,0,1.231,1.231,0,0,0-.393.255,1.376,1.376,0,0,0-.255.393,1.121,1.121,0,0,0,0,.9,1.228,1.228,0,0,0,.255.393,1.207,1.207,0,0,0,1.691,0,1.252,1.252,0,0,0,.346-.845,1.02,1.02,0,0,0-.1-.453,1.378,1.378,0,0,0-.251-.392Z" transform="translate(-29.392 -279.076)" fill="#d6cfff"></path>
        <path id="Path_91" d="M60.89,47.411a1.19,1.19,0,0,0,.382-.061l7.14-2.38a1.192,1.192,0,1,0-.752-2.262l-7.14,2.38A1.19,1.19,0,0,0,60.9,47.41Z" transform="translate(-51.368 -36.7)" fill="#d6cfff"></path>
        <path id="Path_92" d="M85.425,50.206a1.19,1.19,0,0,0,1.52.722l16.663-5.952a1.191,1.191,0,1,0-.8-2.243L86.145,48.685a1.191,1.191,0,0,0-.72,1.521Z" transform="translate(-73.453 -36.714)" fill="#d6cfff"></path>
      </g>
    </g>
  </symbol>
</svg>